<svg width="56" height="56" viewBox="0 0 56 56" fill="none" xmlns="http://www.w3.org/2000/svg">
<path d="M23.8 1.27224L2.8 15.6743C1.05 16.8905 0 18.7787 0 20.795V49.5991C0 53.1196 3.15 56 7 56H49C52.85 56 56 53.1196 56 49.5991V20.795C56 18.7787 54.95 16.8905 53.2 15.6743L32.2 1.27224C30.9861 0.446152 29.5132 0 28 0C26.4868 0 25.0139 0.446152 23.8 1.27224ZM29.75 28.7961C29.75 31.4525 27.405 33.5968 24.5 33.5968V44.7984C24.5 45.6945 23.73 46.3986 22.75 46.3986C21.77 46.3986 21 45.6945 21 44.7984V33.5968C18.095 33.5968 15.75 31.4525 15.75 28.7961V20.795C15.75 19.8989 16.52 19.1948 17.5 19.1948C18.48 19.1948 19.25 19.8989 19.25 20.795V28.7961H21V20.795C21 19.8989 21.77 19.1948 22.75 19.1948C23.73 19.1948 24.5 19.8989 24.5 20.795V28.7961H26.25V20.795C26.25 19.8989 27.02 19.1948 28 19.1948C28.98 19.1948 29.75 19.8989 29.75 20.795V28.7961ZM36.75 46.3986C35.77 46.3986 35 45.6945 35 44.7984V35.1971H33.25C32.27 35.1971 31.5 34.493 31.5 33.5968V25.5957C31.5 22.7793 33.495 20.3789 36.26 19.5468C37.345 19.1948 38.5 19.9949 38.5 21.083V44.7984C38.5 45.6945 37.73 46.3986 36.75 46.3986Z" fill="white"/>
</svg>
