<svg width="56" height="56" viewBox="0 0 56 56" fill="none" xmlns="http://www.w3.org/2000/svg">
<path d="M44.2581 6.0111C51.371 11.0111 56 19.1889 56 28.4444C56 43.6444 43.4903 55.9666 28.0565 55.9999C12.6452 56.0333 0.0226012 43.6666 2.06067e-05 28.4889C-0.0112697 19.2333 4.61776 11.0333 11.7194 6.02221C13.0403 5.09999 14.8807 5.48888 15.671 6.87777L17.4549 9.99999C18.121 11.1667 17.8049 12.6444 16.7097 13.4444C12.0242 16.8666 9.03228 22.2889 9.03228 28.4333C9.02099 38.6888 17.4436 47.1111 28 47.1111C38.3419 47.1111 47.0355 38.8666 46.9677 28.3222C46.9339 22.5666 44.179 17.0111 39.279 13.4333C38.1839 12.6333 37.879 11.1555 38.5452 9.99999L40.329 6.87777C41.1194 5.49999 42.9484 5.08888 44.2581 6.0111ZM32.5161 29.3333V2.66666C32.5161 1.18889 31.3081 0 29.8065 0H26.1936C24.6919 0 23.4839 1.18889 23.4839 2.66666V29.3333C23.4839 30.8111 24.6919 32 26.1936 32H29.8065C31.3081 32 32.5161 30.8111 32.5161 29.3333Z" fill="white"/>
</svg>
